PathFileType	4	(X/Y/Z)	C:/Users/opensim2020/Desktop/walking_exp_matlab/subject02_walking12_straight_03.trc																																																																																																																												
DataRate	CameraRate	NumFrames	NumMarkers	Units	OrigDataRate	OrigDataStartFrame	OrigNumFrames																																																																																																																								
100	100	5	42	mm	100	1637	127																																																																																																																								
Frame#	Time	LFHD			RFHD			LBHD			RBHD			C7			T10			CLAV			STRN			RBAK			LSHO			LUPA			LELB			LFRM			LWRA			LWRB			LFIN			RSHO			RUPA			RELB			RFRM			RWRA			RWRB			RFIN			LASI			RASI			LPSI			RPSI			LTHI			LKNE			LTIB			LANK			LHEE			LTOE			RTHI			RKNE			RTIB			RANK			RHEE			RTOE			*39			*40			*41		
		X1	Y1	Z1	X2	Y2	Z2	X3	Y3	Z3	X4	Y4	Z4	X5	Y5	Z5	X6	Y6	Z6	X7	Y7	Z7	X8	Y8	Z8	X9	Y9	Z9	X10	Y10	Z10	X11	Y11	Z11	X12	Y12	Z12	X13	Y13	Z13	X14	Y14	Z14	X15	Y15	Z15	X16	Y16	Z16	X17	Y17	Z17	X18	Y18	Z18	X19	Y19	Z19	X20	Y20	Z20	X21	Y21	Z21	X22	Y22	Z22	X23	Y23	Z23	X24	Y24	Z24	X25	Y25	Z25	X26	Y26	Z26	X27	Y27	Z27	X28	Y28	Z28	X29	Y29	Z29	X30	Y30	Z30	X31	Y31	Z31	X32	Y32	Z32	X33	Y33	Z33	X34	Y34	Z34	X35	Y35	Z35	X36	Y36	Z36	X37	Y37	Z37	X38	Y38	Z38	X39	Y39	Z39	X40	Y40	Z40	X41	Y41	Z41	X42	Y42	Z42
																																																																																																																															
112	1.11	798.19952	1710.70447	-963.26788	743.60321	1686.10168	-831.59076	675.4834	1648.10583	-1025.77795	609.82422	1622.88708	-899.41461	586.64081	1501.10645	-961.62946	537.77277	1222.75134	-965.70819	726.79938	1432.79028	-965.80139	779.5932	1261.99841	-951.23218	526.48407	1324.81763	-901.21973	661.91919	1475.22729	-1136.98425	593.05072	1287.64526	-1216.35242	545.90936	1157.34045	-1223.1134	498.20013	1039.04028	-1245.6676	491.58563	895.59711	-1226.41394	453.35272	923.33905	-1258.18384	429.86957	857.745	-1255.74268	653.31726	1467.03479	-773.50043	661.06934	1282.27771	-678.45459	723.77747	1149.65698	-640.4671	816.21863	1069.93127	-625.83197	930.1676	1002.17535	-647.81744	896.23138	967.5119	-617.88696	964.45551	948.12708	-611.39172	797.70673	972.77936	-1072.33228	746.6405	944.26001	-817.20752	573.86908	1007.26447	-1031.19751	548.69189	1004.61884	-921.45074	828.04181	680.15271	-1151.90198	865.70715	482.03925	-1124.53149	880.00104	288.79175	-1135.61316	965.18738	79.42603	-1109.78674	936.41864	40.2331	-1061.61194	1121.68884	88.33083	-1096.20508	588.23401	654.88562	-789.04022	530.065	454.51031	-839.28955	417.57031	301.57138	-849.54266	330.50424	129.59178	-898.13733	286.15698	89.04363	-959.96906	460.56946	38.2911	-876.52832	674.69208	1780.72107	-912.58002	2845.27539	1034.19409	-3360.32764	NaN	NaN	NaN
113	1.12	810.63306	1709.37695	-963.55225	755.75696	1684.60486	-831.89441	687.96228	1646.91333	-1026.49097	622.11176	1621.72668	-900.45886	598.95007	1499.50122	-962.37872	551.34674	1220.5116	-966.41113	739.48065	1431.81189	-966.44958	793.15771	1261.33557	-951.88135	539.47351	1322.88379	-901.73358	674.30548	1474.13708	-1137.39246	605.25439	1287.01892	-1217.12695	558.15967	1156.61609	-1224.00305	510.8562	1038.09229	-1246.75513	504.75638	894.59967	-1226.74402	466.48746	922.14587	-1258.68298	443.35092	856.20502	-1256.05945	665.14178	1465.97314	-774.38684	672.67645	1281.01392	-679.46423	734.23419	1148.12231	-641.67316	826.47736	1068.15039	-626.47595	940.23987	999.95428	-647.1524	906.12427	965.41443	-618.1731	974.23834	946.05829	-610.71899	813.28229	973.57751	-1073.12012	761.60626	943.35413	-818.10321	589.24512	1005.74188	-1032.45239	563.58374	1002.79437	-922.98865	845.2854	680.00629	-1151.33069	879.62518	480.41837	-1124.53442	889.65125	286.4502	-1135.71558	969.70935	75.40868	-1109.46802	939.43884	38.26969	-1062.4762	1126.22705	81.67056	-1094.30823	600.76825	654.71088	-788.91937	541.06281	454.93744	-838.05219	424.67401	304.72345	-848.94366	333.79053	134.62721	-897.03107	288.91867	95.56458	-959.01935	460.97885	38.31866	-876.00134	687.02551	1779.47375	-912.9364	2845.94849	1034.26794	-3357.33325	NaN	NaN	NaN
114	1.13	822.77863	1707.86304	-963.68011	767.5191	1683.10303	-832.45044	700.46777	1645.58057	-1027.14661	634.07806	1620.33386	-901.55969	611.32465	1497.94556	-963.05566	565.18787	1218.34961	-967.19965	752.2019	1430.83667	-967.10205	806.91986	1260.76001	-952.56525	552.49414	1320.86707	-902.45795	686.76184	1472.99951	-1137.93213	617.74341	1286.54724	-1218.38684	570.96729	1155.81396	-1225.10535	524.1712	1036.68286	-1247.38416	518.7851	893.34009	-1227.18152	480.36292	920.36267	-1259.30786	457.89502	854.31177	-1256.53906	677.01233	1464.65479	-775.25922	684.0885	1279.68506	-680.50897	744.50189	1146.40466	-642.78778	836.42889	1066.08679	-627.31354	950.35309	997.70428	-647.28149	915.41614	962.8504	-618.82605	983.65765	943.72949	-610.48779	828.91327	974.51147	-1073.95703	776.75183	942.32343	-819.13104	604.76007	1004.31189	-1033.90063	578.76709	1000.95862	-924.68903	861.44086	679.1806	-1150.90063	892.83954	478.63165	-1125.25708	899.21014	284.07877	-1135.4635	975.08008	72.68417	-1108.97546	942.91241	40.22062	-1061.82019	1133.29175	69.9402	-1093.74915	613.33154	654.5531	-788.77417	552.44769	455.49356	-836.50824	432.37341	308.08395	-848.15338	337.60236	140.11652	-895.81757	292.36288	102.8685	-958.04419	461.47913	38.34959	-875.51294	699.14124	1778.12146	-913.92847	2845.15503	1034.25146	-3360.34424	NaN	NaN	NaN
115	1.14	835.35065	1707.05139	-963.8764	779.51636	1682.06543	-832.73413	713.26453	1644.46448	-1027.7655	646.461	1619.10547	-902.46014	623.26379	1496.24695	-964.13159	579.03143	1216.73682	-968.37115	764.97327	1430.02356	-967.83917	820.61517	1260.53394	-953.21912	565.45947	1319.39246	-904.0285	699.39069	1472.0144	-1138.56519	630.53339	1285.66345	-1219.20056	584.27966	1154.62598	-1226.26257	538.23126	1035.04468	-1248.4032	533.61188	891.79529	-1227.71167	495.22302	918.57953	-1260.06165	473.36258	852.13605	-1257.45349	688.789	1463.47437	-776.24786	695.1781	1278.22583	-681.52045	754.44745	1144.63501	-644.04242	845.91467	1063.776	-628.01489	959.81793	994.90015	-647.4472	924.60083	960.30664	-619.10565	992.46124	940.67706	-610.37372	844.42273	975.43903	-1074.77026	792.72333	941.98151	-820.27502	620.70844	1002.98901	-1035.51013	593.93726	999.10565	-926.52588	876.00623	678.5567	-1151.01111	904.6745	477.66315	-1126.99023	909.65259	282.612	-1134.10999	982.18781	73.48335	-1110.79846	947.68927	43.1314	-1063.41846	1140.36157	56.13098	-1093.84668	626.78992	654.46307	-788.78705	564.49774	455.97742	-834.89447	440.79422	311.629	-847.18237	341.90939	146.31236	-894.41962	296.51959	110.67382	-956.48029	461.94586	38.3359	-874.93182	711.20203	1776.99707	-914.54053	2845.76416	1034.42163	-3357.38599	NaN	NaN	NaN
116	1.15	847.83331	1706.82947	-963.81348	791.53516	1681.58594	-833.16168	726.08844	1644.25073	-1028.48901	658.82208	1618.76367	-903.37988	635.30554	1495.11609	-965.15277	592.91833	1215.81726	-969.67322	777.58441	1429.823	-968.49121	834.02173	1260.76074	-953.7514	578.53857	1317.96094	-905.20361	712.00592	1471.21252	-1139.42651	643.69293	1284.70374	-1220.31287	598.05817	1153.13635	-1227.50317	552.96204	1033.14136	-1249.50928	549.30371	890.06549	-1228.30176	510.84412	916.3941	-1260.84143	489.86292	849.81866	-1258.51196	700.68762	1462.57031	-776.95282	706.04572	1276.68591	-682.66205	764.32178	1142.60083	-645.367	855.10046	1061.2655	-628.86603	968.6109	991.99072	-647.13062	933.17664	957.33929	-619.69031	1000.89539	937.24585	-610.42853	859.98322	976.34772	-1075.66223	809.05298	941.69019	-821.93884	636.78516	1002.2121	-1037.42554	609.18774	997.29498	-928.41632	888.85895	678.67584	-1152.25952	917.52277	478.24377	-1128.79688	921.79944	283.48209	-1132.57996	990.23981	72.91364	-1112.2146	951.23315	44.84961	-1066.073	1146.64563	49.00175	-1093.0946	640.74762	654.48029	-788.89307	578.02875	456.58017	-832.73187	450.43106	315.37955	-845.96588	347.58002	152.90623	-892.64526	301.93024	119.52776	-955.23517	462.59366	38.37027	-874.51459	723.49573	1776.39233	-914.52991	2845.89722	1034.40271	-3357.44775	NaN	NaN	NaN
